Patient4_TMGait_0pt7_01_left_42_EMG.mot
version=1
nRows=17
nColumns=33
inDegrees=no
endheader
time	1LAddLong	2LGlutMax	3LGlutMed	4LIliopsoas	5LSemiMemb	6LBicFemLong	7LRecFem	8LVastMed	9LVastLat	10LGasMed	11LTibAnt	12lTibPost	13LPeroneusLong	14LSol	15LExtDigLong	16LFlexDigLong	17RAddLong	18RGlutMax	19RGlutMed	20RIliopsoas	21RSemiMemb	22RBicFemLong	23RRecFem	24RVastMed	25RVastLat	26RGasMed	27RTibAnt	28RTibPost	29RPeroneusLong	30RSol	31RExtDigLong	32RFlexDigLong
49.445	0.010529	-0.23102	-0.037994	-0.000305	0.044403	-0.088196	-0.11566	0.003815	0.098419	0.42893	0.014954	-0.13763	0.089111	0.26993	-0.056458	-0.077667	0.053406	-0.0914	0.61783	0.080109	0.13214	-0.3952	0.16327	0.16556	-0.16159	0.004272	-0.2742	0.001984	0.14954	-0.047913	-0.000763	0
49.446	0.003662	-0.23514	-0.012054	0.000305	0.028534	-0.049744	-0.10925	0.007782	0.068817	0.34912	0.013275	0.3421	-0.000153	0.1651	-0.056	-0.57312	0.079651	-0.086365	0.52292	0.005188	0.29755	-0.4837	0.097961	0.092163	-0.15808	0.000153	-0.3302	0.000305	0.01358	-0.019531	-0.001526	-0.000458
49.447	-0.001068	-0.19638	-0.003357	0.005035	-0.027771	-0.029602	-0.12192	0.009003	0.049744	0.49622	0.027161	-0.011902	-0.019684	0.079498	-0.071106	0.17624	0.081024	-0.083008	0.48599	-0.008545	0.2417	-0.44006	-0.063019	-0.025177	-0.13046	-0.00412	-0.00824	-0.002136	-0.42709	-0.008698	-0.003204	-0.004883
49.448	-0.001068	-0.14252	0.024872	-0.011902	-0.082092	0.017853	-0.10986	0.00885	0.056458	0.69031	0.03006	0.10284	-0.040283	-0.045166	-0.039368	0.095978	0.060425	-0.024567	0.49057	-0.005798	0.001831	-0.24719	-0.24063	0.028381	0.083923	0.01297	0.27954	-0.001678	-0.6366	-0.048828	-0.005646	-0.001221
49.449	0.010529	-0.14923	0.072479	-0.007172	-0.030823	0.027008	-0.11475	0.00885	0.046082	0.45548	0.022583	-0.016785	-0.083466	-0.027008	-0.015564	0.048065	-0.026093	-0.038757	0.72098	-0.02655	-0.20935	0.090485	-0.11047	0.1471	0.085907	0.006561	0.021515	0.000153	-0.32455	-0.05127	-0.002289	-0.010376
49.45	0.007324	-0.10346	0.095215	0.008392	0.051422	-0.017242	-0.14282	0.002289	0.048523	-0.55786	0.024414	-0.028076	-0.16007	0.11246	0.003052	0.10819	-0.034485	-0.16861	0.85281	0.014038	-0.24155	0.30472	0.017548	0.32654	0.073853	0.005951	-0.21378	-0.001526	0.71121	-0.047913	-0.00061	-0.005035
49.451	0.010223	-0.06958	0.14053	0.014496	0.040741	-0.10483	-0.14313	0.004272	0.055084	-1.2512	0.045929	-0.016479	-0.18219	0.13321	-0.009766	0.074768	-0.002441	-0.19989	0.91827	0.00473	0.121	0.30838	0.16922	0.21072	0.23773	0.003204	-0.2565	-0.001984	0.65155	-0.009613	-0.000916	-0.00473
49.452	0.006561	-0.038757	0.15839	0.003204	0.026703	-0.094299	-0.1622	0.006561	0.035248	-0.80139	0.040283	0.005951	0.054321	-0.038757	-0.006714	0.032043	0.032654	-0.24643	0.81833	0.009155	0.19562	0.32974	0.20493	0.033722	0.62576	0.00061	-0.30441	-0.003815	0.31891	0.047455	-0.001984	-0.000153
49.453	0.00412	0.015717	0.1886	0.003052	-0.007019	0.006714	-0.17181	0.007477	0.036316	-0.41931	-0.005035	0.020142	0.19012	-0.16907	0.014801	0.031586	0.074463	-0.17425	0.77438	-0.012207	0.24735	0.3772	0.18753	-0.08255	0.48599	-0.000916	-0.024719	-0.003357	0.12817	0.009308	-0.001068	-0.013123
49.454	0.005035	0.06424	0.1831	-0.029297	-0.041199	0.103	-0.16754	0.002747	0.033264	-0.097046	0.009003	0.012054	0.14862	-0.13153	0.022278	0.015869	0.0177	0.01236	0.6073	-0.039673	0.69351	0.32959	0.16892	-0.19898	0.053101	-0.008698	0.13519	-0.004425	0.044708	-0.061798	0.00061	-0.013733
49.455	0.007782	0.1387	0.18539	-0.027771	-0.010223	0.055847	-0.16861	0.005798	0.033112	0.017242	-0.014954	-0.001984	0.066223	-0.055847	-0.00885	0.003052	-0.031433	0.1326	0.62943	-0.067596	0.61096	0.2945	0.16403	-0.21957	-0.41504	-0.00473	0.006714	-0.007782	0.10544	-0.088043	-0.001373	-0.017242
49.456	0.010223	0.15869	0.18402	0	0.019836	0.088806	-0.22339	0.006409	0.023193	-0.0383	0.006409	-0.010223	0.048981	0.009918	-0.006714	-0.010376	-0.033569	0.11917	0.70114	-0.021362	0.19547	0.34393	-0.01297	-0.22385	-0.63812	-0.008392	-0.011902	-0.007019	0.09201	-0.12253	0.000458	-0.007019
49.457	0.002899	0.19196	0.17716	-0.007324	0.016785	0.13718	-0.18585	0.006256	0.013275	-0.046234	0.024872	-0.016327	0.005035	0.14511	0.005798	0.012665	-0.029907	0.031281	0.69458	-0.054626	0.37369	0.30624	-0.06012	-0.16357	-0.63522	0.001526	0.005951	-0.009308	0.045013	-0.13825	-0.001831	-0.009766
49.458	0.005188	0.16388	0.15747	-0.012817	0.008392	0.073395	-0.16357	0.005798	0.004272	-0.022736	0.013275	-0.005493	-0.025177	0.15121	0.009613	0.00351	-0.085144	-0.024567	0.59952	-0.07019	0.17441	0.49332	-0.089264	0.17914	-0.55695	0.008545	-0.12009	-0.007782	0.067291	-0.10346	0.002441	-0.007935
49.459	0.007477	0.15686	0.1648	-0.009766	0.012665	-0.015717	-0.19241	0.001373	0.010529	-0.009613	0.028229	0.005798	-0.039673	0.071411	0.024109	-0.009155	-0.12589	-0.071259	0.58243	-0.17334	0.081024	0.72433	-0.33859	0.66101	-0.47516	0.006256	-0.088654	-0.006561	0.12924	-0.041199	0.001678	-0.011444
49.46	0.010529	0.16022	0.15793	-0.006561	0.02655	-0.025177	-0.21713	-0.000458	0.001221	-0.00061	0.00351	-0.016632	-0.16556	-0.014343	0.065308	-0.06958	-0.054016	-0.18539	0.47623	-0.17212	0.67764	0.62424	-0.45059	0.5365	-0.13886	0.003052	-0.13489	-0.007019	0.12344	-0.033112	0.000153	0.001678
49.461	0.007935	0.15915	0.20554	0.026703	0.010681	-0.014191	-0.22278	-0.010986	0.003204	-0.002136	0.015106	-0.61081	-0.26688	-0.027313	0.059052	-0.074768	0.013885	-0.42297	0.35416	-0.082092	0.65994	0.62271	-0.18448	0.58594	0.17441	0.002899	-0.16205	-0.010834	0.1001	-0.002441	-0.002289	-0.000305
